<?xml version="1.0" encoding="utf-8"?>
<!-- Generator: Adobe Illustrator 22.0.1, SVG Export Plug-In . SVG Version: 6.00 Build 0)  -->
<svg version="1.1" id="Layer_1" xmlns="http://www.w3.org/2000/svg" xmlns:xlink="http://www.w3.org/1999/xlink" x="0px" y="0px"
	 viewBox="0 0 62.9 62.2" style="enable-background:new 0 0 62.9 62.2;" xml:space="preserve">
<title>1Artboard 34</title>
<path d="M44,23.5c0.5-0.6,0.4-1.5-0.2-2c-0.5-0.4-1.3-0.4-1.8,0l-26,22.1L2.1,38.3c-1.7-0.7-2.6-2.6-1.9-4.3
	c0.3-0.7,0.8-1.4,1.5-1.7l57-31.9c1.4-0.7,3.1-0.2,3.8,1.1c0.3,0.5,0.4,1,0.3,1.6l-5,52.1c-0.2,1.9-1.9,3.3-3.8,3.1
	c-0.3,0-0.7-0.1-1-0.2l-16.7-6.5L26,61.4c-1.1,1-2.8,1-3.8-0.1c-0.5-0.5-0.7-1.2-0.7-1.9v-7.7L44,23.5z"/>
</svg>
